<svg width="960" height="720" viewBox="0 0 960 720" fill="none" xmlns="http://www.w3.org/2000/svg">
  <rect width="960" height="720" fill="#F7F3EC"/>
  <rect x="0" y="0" width="960" height="280" fill="#EEF3F6"/>
  <ellipse cx="780" cy="102" rx="190" ry="130" fill="#E9F3EF"/>
  <rect x="120" y="360" width="700" height="220" rx="20" fill="#E2D9CB"/>
  <rect x="160" y="300" width="520" height="230" rx="18" fill="#2D3036"/>
  <rect x="184" y="324" width="472" height="170" rx="10" fill="#F3F5F4"/>
  <rect x="204" y="344" width="180" height="16" rx="8" fill="#D8E2DE"/>
  <rect x="204" y="372" width="260" height="12" rx="6" fill="#E3EAE7"/>
  <rect x="204" y="392" width="230" height="12" rx="6" fill="#E3EAE7"/>
  <rect x="490" y="344" width="146" height="110" rx="10" fill="#E8EEF1"/>
  <circle cx="290" cy="250" r="82" fill="#E8D8C8"/>
  <rect x="220" y="330" width="150" height="200" rx="70" fill="#26434F"/>
  <rect x="242" y="470" width="100" height="85" rx="40" fill="#1D3340"/>
  <rect x="700" y="245" width="120" height="110" rx="14" fill="#F6FAF8"/>
  <rect x="718" y="270" width="84" height="12" rx="6" fill="#D7E4E1"/>
  <rect x="718" y="292" width="64" height="10" rx="5" fill="#E4ECE9"/>
  <rect x="740" y="560" width="126" height="18" rx="9" fill="#D3C5B4"/>
</svg>
